<?xml version="1.0" standalone="no"?>
<!DOCTYPE svg PUBLIC "-//W3C//DTD SVG 20010904//EN"
 "http://www.w3.org/TR/2001/REC-SVG-20010904/DTD/svg10.dtd">
<svg version="1.0" xmlns="http://www.w3.org/2000/svg"
 width="612.000000pt" height="612.000000pt" viewBox="0 0 612.000000 612.000000"
 preserveAspectRatio="xMidYMid meet">
<metadata>
Created by potrace 1.14, written by Peter Selinger 2001-2017
</metadata>
<g transform="translate(0.000000,612.000000) scale(0.100000,-0.100000)"
fill="#000000" stroke="none">
<path d="M0 6042 c0 -64 3 -79 15 -79 9 0 13 7 10 16 -2 9 0 23 5 31 8 12 10
11 10 -7 0 -12 5 -25 10 -28 6 -3 10 -14 10 -23 0 -15 -2 -15 -11 -2 -7 11 -8
5 -3 -22 4 -25 -2 -64 -20 -127 -30 -104 -37 -241 -12 -241 33 0 105 41 127
72 35 48 59 95 59 115 1 17 2 17 15 0 7 -11 12 -24 11 -30 -2 -7 -1 -9 1 -4 3
4 9 7 13 7 10 0 6 -43 -8 -105 -6 -22 -18 -76 -27 -120 -9 -44 -23 -105 -31
-135 -20 -70 -73 -182 -75 -155 0 16 -3 14 -11 -7 -5 -16 -17 -28 -25 -28 -9
0 -14 -3 -11 -6 4 -3 -7 -18 -23 -33 l-29 -28 0 -1427 c0 -1239 2 -1426 15
-1426 7 0 18 6 22 13 21 32 100 44 183 27 3 0 -6 -7 -20 -16 l-25 -15 25 7
c14 4 31 9 38 11 6 3 12 2 12 -1 0 -4 -26 -19 -57 -33 -165 -73 -204 -95 -191
-108 4 -4 19 2 34 14 15 11 32 21 39 21 11 0 94 33 150 60 18 9 143 50 151 50
5 0 17 -89 23 -175 l6 -80 35 1 c19 1 53 8 75 17 22 8 42 14 44 12 2 -2 6 -19
10 -36 5 -26 18 -40 65 -68 59 -37 95 -90 102 -151 6 -53 16 -95 26 -107 5 -7
16 -36 23 -65 13 -49 13 -42 8 98 -4 107 -2 153 6 158 6 4 14 -1 18 -11 4 -10
15 -27 25 -37 10 -11 18 -25 18 -30 0 -6 6 -23 14 -37 7 -15 19 -51 26 -80 18
-77 20 -83 27 -76 3 4 6 37 6 74 0 38 2 60 4 51 4 -16 15 -22 35 -19 4 0 5 -5
2 -13 -3 -8 4 -21 16 -29 14 -9 19 -20 15 -28 -5 -7 -4 -10 2 -6 9 5 38 -41
33 -52 -1 -2 3 -7 9 -10 6 -4 17 -33 24 -66 17 -74 43 -91 33 -21 -9 56 2 59
40 8 15 -20 31 -39 34 -42 4 -3 19 -27 35 -55 104 -189 158 -255 273 -334 109
-75 216 -176 208 -197 -3 -9 -6 -17 -6 -19 0 -2 -9 -1 -20 2 -24 6 -26 -5 -5
-21 14 -10 13 -16 -6 -56 -12 -25 -23 -46 -24 -48 -2 -2 -36 10 -77 27 -72 29
-169 59 -218 67 -14 3 -68 15 -120 28 -52 13 -124 30 -158 36 -48 10 -66 18
-71 33 -7 18 -8 19 -14 3 -8 -19 -23 -17 -90 11 l-38 17 1 75 c2 59 -15 367
-21 391 0 3 -4 -7 -9 -23 -5 -15 -4 -57 1 -95 14 -95 9 -295 -8 -318 -7 -10
-26 -18 -41 -19 -23 0 -27 -4 -25 -28 1 -15 -2 -27 -8 -27 -5 0 -9 7 -9 15 0
8 -4 15 -9 15 -5 0 -11 10 -13 22 -4 31 -21 32 -52 3 -15 -14 -34 -25 -42 -25
-7 0 -14 -4 -14 -10 0 -5 8 -10 19 -10 10 0 44 -14 74 -30 31 -17 60 -29 64
-28 5 2 9 -1 10 -6 1 -5 7 -12 13 -16 8 -5 10 -19 6 -37 -6 -25 -11 -29 -31
-25 -18 3 -25 11 -25 28 0 13 -6 24 -12 24 -9 0 -8 4 2 10 12 8 11 10 -7 10
-13 0 -23 5 -23 11 0 6 -10 9 -22 7 -18 -2 -23 -10 -25 -42 -2 -32 17 -75 108
-253 105 -205 127 -261 83 -217 -10 10 -33 28 -51 39 -34 22 -143 122 -143
132 0 4 -18 28 -40 54 -22 26 -40 52 -40 57 0 5 -11 15 -25 22 -13 7 -23 16
-22 19 3 9 -96 101 -110 101 -6 0 -14 8 -17 18 -4 9 -51 46 -106 82 -55 35
-120 83 -144 105 -25 22 -53 41 -63 42 -11 1 43 -59 136 -150 292 -286 345
-334 496 -446 44 -32 112 -88 150 -124 62 -58 76 -77 119 -173 59 -129 62
-134 91 -134 32 0 36 32 25 227 -8 133 -15 183 -35 239 -29 85 -25 117 12 103
13 -5 35 -9 48 -9 13 0 30 -9 38 -21 l15 -21 7 22 c5 15 12 19 27 15 10 -4 51
-7 90 -6 l70 1 -6 -28 c-5 -26 -5 -26 6 -4 6 12 20 22 32 22 22 0 37 -25 51
-85 l8 -30 8 28 c4 16 5 35 2 43 -3 8 -1 14 5 14 6 0 19 3 29 6 14 4 15 4 4
-4 -7 -5 -11 -14 -7 -20 3 -5 -5 -34 -18 -63 -22 -49 -76 -337 -76 -405 l0
-24 1619 0 c1467 0 1619 1 1625 16 3 9 6 46 6 82 0 37 5 105 10 151 10 90 -1
213 -22 238 -8 10 -8 17 1 26 10 9 11 8 5 -7 -7 -18 -6 -18 19 -2 16 11 27 13
32 7 11 -19 22 -12 31 22 12 40 48 50 59 15 7 -22 8 -22 12 7 5 33 38 70 53
60 6 -4 8 -10 5 -14 -2 -5 4 -16 15 -26 11 -10 21 -14 21 -9 1 5 3 19 4 32 4
38 19 45 48 22 l25 -20 22 30 c26 36 41 38 71 6 26 -27 39 -25 39 4 0 29 20
35 36 11 21 -30 36 -26 32 8 -3 34 13 56 59 78 22 10 30 19 22 23 -8 5 -3 13
15 25 14 10 26 27 27 39 0 11 3 15 6 8 3 -9 10 -7 24 9 l18 21 7 -26 c7 -30
24 -35 24 -7 0 28 11 52 21 46 4 -3 11 10 15 30 7 38 12 44 44 50 18 4 20 -2
21 -58 1 -50 3 -56 9 -32 4 17 8 48 9 70 1 28 9 47 25 62 36 35 57 108 47 168
-5 28 -9 42 -10 33 0 -9 -7 -23 -15 -30 -7 -8 -13 -27 -13 -42 0 -37 -17 -53
-37 -36 -38 31 -63 -21 -26 -55 24 -22 26 -55 4 -55 -8 0 -12 5 -9 10 4 6 -5
10 -19 10 -14 0 -26 4 -26 9 0 12 -56 31 -93 31 -27 0 -29 2 -25 30 3 17 1 33
-3 35 -3 3 -10 -20 -14 -50 -3 -30 -11 -57 -16 -60 -5 -4 -30 -10 -57 -15 -85
-15 -304 -71 -432 -110 -69 -21 -136 -42 -150 -46 -14 -4 -41 -15 -60 -25 -69
-37 -117 -16 -70 31 22 22 41 26 38 8 -2 -7 8 -13 22 -15 15 -1 18 0 7 3 -28
8 -14 29 19 30 16 0 35 4 42 8 15 9 5 29 -11 20 -7 -3 -1 3 13 15 14 11 51 30
82 42 64 24 93 48 62 50 -19 2 -41 4 -76 7 -14 2 -18 11 -18 43 0 33 -3 40
-17 37 -14 -3 -17 -12 -15 -38 1 -19 8 -38 15 -42 8 -5 4 -8 -10 -8 -16 0 -21
4 -17 15 10 26 -12 16 -24 -10 -6 -14 -19 -25 -28 -25 -10 0 -14 -5 -10 -15 3
-8 1 -15 -4 -15 -6 0 -10 7 -10 15 0 8 -5 15 -11 15 -7 0 -9 -9 -5 -24 6 -26
-11 -40 -33 -26 -9 5 -10 10 -2 14 17 11 13 29 -4 22 -8 -3 -15 -3 -15 -1 0
11 45 55 56 55 8 0 11 6 7 17 -4 9 -2 14 3 10 6 -3 45 28 87 69 72 69 107 89
107 63 0 -6 -10 -8 -22 -5 -20 5 -20 5 2 -6 14 -7 28 -17 32 -23 4 -5 8 4 8
21 0 17 7 37 15 44 8 7 15 22 16 34 0 15 2 17 7 6 6 -13 24 -17 57 -11 6 1 4
5 -4 10 -12 8 -12 14 -1 43 15 36 33 58 48 58 5 0 17 12 27 26 13 20 22 24 40
20 14 -4 25 -1 28 7 3 6 6 -2 6 -20 1 -17 5 -34 10 -38 11 -6 23 47 25 104 1
29 5 37 24 39 13 2 22 10 22 21 0 25 46 46 54 25 9 -23 24 -7 32 32 4 23 11
33 20 30 7 -3 15 0 18 7 2 7 5 3 6 -8 1 -20 1 -20 9 0 14 35 32 -44 45 -198
10 -125 13 -136 19 -89 3 29 2 64 -3 78 -13 32 -13 87 -1 79 20 -12 42 129 40
263 0 44 4 79 12 88 7 9 9 30 6 56 -7 55 6 78 43 78 17 0 30 -5 30 -11 0 -5
15 -16 34 -24 22 -9 39 -27 51 -51 l18 -38 14 27 c20 39 33 33 33 -15 1 -45 0
-47 96 210 13 35 20 42 42 42 15 0 22 4 16 8 -20 14 -23 38 -4 38 10 0 16 -6
13 -13 -3 -7 0 -13 6 -13 6 0 11 10 11 23 0 18 2 19 10 7 5 -8 10 -10 10 -4 0
7 11 15 25 18 16 4 22 11 19 21 -4 8 -2 15 4 15 27 0 137 -34 170 -52 26 -14
31 -15 17 -3 -20 16 -91 52 -190 93 -43 18 -46 21 -22 22 27 0 62 22 52 32 -3
3 10 3 28 1 20 -2 26 0 15 4 -10 5 12 8 51 8 38 0 67 -3 65 -6 -2 -4 7 -10 21
-13 14 -4 25 -11 25 -16 0 -6 10 -10 23 -10 18 0 19 2 7 10 -11 7 -7 10 18 10
l32 0 0 1930 0 1929 -1256 1 -1256 0 26 -31 c24 -28 34 -59 20 -59 -8 0 -94
49 -126 71 -23 17 -45 19 -172 19 -120 0 -146 -3 -146 -14 0 -8 5 -18 10 -21
5 -3 10 -15 10 -26 0 -10 4 -19 9 -19 5 0 7 -8 4 -18 -2 -10 7 -40 21 -66 14
-27 23 -53 19 -60 -4 -6 -6 -19 -4 -29 6 -38 -33 17 -84 118 -50 100 -73 135
-87 135 -5 0 -8 -5 -8 -11 0 -5 4 -8 9 -5 4 3 13 -20 19 -52 15 -84 20 -103
33 -118 10 -12 7 -20 -11 -39 -23 -25 -50 -33 -50 -16 0 4 -12 24 -27 43 -16
19 -41 71 -58 116 -22 62 -34 82 -47 82 -21 0 -18 -27 13 -99 11 -24 19 -51
19 -59 0 -14 -2 -14 -14 -2 -18 19 -56 114 -56 140 0 18 -7 20 -71 20 l-72 0
7 -92 c4 -51 9 -111 11 -133 2 -22 1 -44 -2 -49 -9 -13 -42 55 -43 87 0 26
-15 38 -22 17 -1 -5 -4 15 -4 45 -2 82 -13 125 -30 125 -17 0 -16 -16 8 -146
10 -55 2 -142 -9 -104 -2 8 -8 24 -13 35 -5 11 -16 61 -25 110 -24 129 -39
134 -31 10 4 -61 3 -96 -3 -90 -7 8 -41 154 -41 178 0 4 -98 7 -219 7 l-218 0
-56 -88 c-60 -95 -94 -138 -102 -130 -5 5 31 71 94 171 l30 47 -1060 0 -1059
0 0 -78z m65 -21 c0 -16 -3 -33 -7 -37 -5 -4 -8 6 -8 23 0 23 6 43 14 43 1 0
1 -13 1 -29z m2255 -5 c0 -2 9 -73 20 -157 33 -249 90 -424 160 -493 22 -22
40 -43 40 -48 0 -4 5 -8 11 -8 8 0 8 4 2 13 -12 15 -58 138 -72 192 -31 120
-49 341 -35 428 7 40 24 51 24 15 0 -12 6 -29 14 -37 15 -17 46 -102 46 -127
0 -15 56 -146 126 -294 86 -181 182 -312 242 -329 19 -6 32 -6 32 0 0 15 27
10 34 -6 8 -22 26 -18 26 5 0 11 4 20 9 20 5 0 7 -8 4 -19 -3 -10 0 -21 5 -25
18 -11 37 27 42 84 0 8 11 -3 22 -25 18 -33 23 -36 26 -20 6 26 23 37 39 23
19 -15 17 9 -7 84 -52 160 -50 148 -29 135 11 -7 19 -16 19 -21 0 -6 7 -1 15
10 14 18 14 18 15 0 0 -12 5 -16 15 -12 9 3 24 -3 35 -14 11 -11 23 -20 26
-19 3 0 28 -31 56 -68 59 -79 66 -85 93 -76 11 3 35 7 54 8 40 3 49 18 50 83
1 29 5 42 13 40 14 -5 22 -18 49 -83 11 -27 23 -45 27 -39 9 14 43 28 61 25
19 -3 31 18 31 55 0 16 6 36 12 42 10 10 17 -1 33 -50 20 -62 21 -63 55 -62
19 1 38 -3 42 -9 3 -6 19 14 34 44 l28 54 6 -42 c4 -24 8 -44 11 -47 10 -9 99
-23 127 -18 23 3 33 12 45 40 14 35 15 35 16 10 1 -38 11 -58 27 -58 20 0 22
54 9 255 -7 110 -6 118 9 106 9 -8 19 -11 23 -8 13 13 42 -15 92 -88 28 -42
51 -78 51 -81 0 -7 59 -85 75 -99 10 -9 21 -32 44 -97 9 -24 12 -26 49 -17 37
8 40 7 93 -44 68 -64 75 -86 91 -296 10 -128 10 -155 -1 -159 -11 -4 -11 -6 0
-13 11 -7 11 -9 -1 -9 -9 0 -31 13 -50 30 -19 16 -39 29 -45 29 -5 0 -1 -6 9
-14 27 -21 11 -19 -54 6 -100 38 -246 30 -500 -26 -226 -51 -421 -145 -404
-197 3 -10 1 -18 -4 -18 -6 0 -12 6 -14 12 -3 9 -8 6 -15 -7 -10 -18 -8 -20
18 -22 15 -1 31 2 34 7 4 6 15 10 26 10 10 0 19 5 19 11 0 6 7 9 15 5 8 -3 15
-1 15 3 0 5 35 21 78 36 42 15 97 35 122 46 54 22 152 47 212 54 23 2 69 11
101 20 69 18 179 19 333 4 101 -11 113 -14 118 -33 9 -33 7 -130 -5 -256 -8
-89 -16 -123 -34 -155 l-24 -40 36 1 c45 1 68 28 114 130 18 41 35 74 39 74 4
0 6 -68 4 -150 -1 -127 0 -149 12 -139 11 9 15 8 20 -5 5 -12 10 -14 19 -6 7
6 20 8 29 4 19 -7 22 -46 4 -43 -28 3 -38 -2 -38 -20 0 -10 -7 -24 -16 -32
-10 -8 -13 -21 -9 -38 5 -19 4 -22 -7 -14 -7 6 -26 13 -43 16 -16 3 -63 19
-103 36 -73 30 -123 42 -262 60 -127 16 -302 -12 -445 -72 -51 -21 -160 -91
-171 -108 -13 -21 3 -16 51 17 67 47 195 107 275 130 48 14 99 19 190 19 151
0 197 -12 394 -105 l59 -28 -32 -16 c-41 -21 -76 -13 -61 14 15 29 12 32 -15
14 -27 -18 -38 -17 -175 11 -66 14 -114 16 -215 12 -151 -6 -204 -22 -332 -98
-75 -46 -230 -185 -218 -197 3 -3 14 3 25 13 27 25 25 15 -9 -42 -16 -26 -32
-59 -36 -73 l-7 -25 18 22 c11 12 24 29 30 39 9 15 12 10 18 -33 14 -109 63
-184 159 -249 89 -59 134 -74 221 -74 100 0 322 26 376 43 65 21 120 46 120
55 0 4 11 19 25 34 32 35 68 29 59 -11 -18 -85 -29 -121 -36 -121 -4 0 -7 -3
-7 -7 1 -5 0 -19 -1 -33 -2 -21 -3 -22 -7 -5 -3 11 -11 29 -19 39 -13 18 -14
18 -24 -9 -8 -21 -8 -36 1 -57 9 -22 9 -35 1 -53 -6 -14 -9 -40 -6 -57 4 -25
3 -29 -5 -18 -9 12 -11 11 -11 -8 0 -13 4 -20 10 -17 14 9 12 -7 -4 -30 -7
-11 -13 -34 -14 -52 0 -17 -6 -41 -12 -52 -6 -12 -8 -21 -5 -21 3 0 -1 -10 -9
-22 -9 -12 -16 -32 -17 -43 0 -11 -3 -14 -6 -7 -3 8 -11 2 -21 -16 -19 -33
-68 -92 -76 -92 -3 0 -18 -13 -33 -28 -16 -16 -44 -39 -63 -52 -19 -13 -37
-27 -40 -30 -3 -3 -23 -19 -45 -36 -48 -35 -155 -140 -155 -151 0 -4 -46 -55
-101 -113 -56 -58 -145 -150 -198 -205 -53 -55 -117 -125 -141 -155 -25 -30
-50 -59 -55 -65 -6 -5 -27 -30 -47 -55 -58 -72 -85 -100 -94 -100 -5 0 -27
-16 -49 -36 -51 -44 -188 -125 -240 -142 -22 -6 -72 -15 -110 -18 -74 -7 -123
7 -262 72 -28 13 -58 24 -66 24 -8 0 -26 15 -40 32 -150 192 -195 245 -269
318 -107 106 -183 177 -173 160 5 -9 4 -11 -3 -6 -7 4 -12 14 -12 22 0 8 -5
14 -10 14 -6 0 -28 17 -48 38 -21 21 -52 47 -70 57 -17 11 -32 25 -32 32 0 7
-7 13 -15 13 -8 0 -23 13 -34 30 -10 16 -21 27 -24 24 -3 -4 -19 8 -34 27 -15
18 -39 42 -52 54 -14 11 -42 37 -64 58 -21 20 -43 37 -48 37 -5 0 -9 5 -9 10
0 6 -7 10 -17 10 -9 0 -14 2 -12 5 3 2 -30 40 -72 83 -59 60 -87 98 -113 155
-20 42 -36 81 -36 87 0 5 -5 10 -10 10 -7 0 -9 13 -5 33 4 17 2 50 -4 72 -22
90 -35 130 -41 135 -15 11 -40 70 -46 110 -4 24 -15 51 -26 62 -10 10 -19 27
-19 38 -1 11 -2 26 -3 33 -4 25 7 28 18 5 9 -18 20 -23 51 -24 26 -1 57 -12
89 -33 28 -17 57 -31 67 -31 9 0 32 -6 50 -13 19 -7 79 -15 134 -16 55 -1 117
-6 137 -11 56 -12 168 4 229 33 64 29 139 99 167 153 11 22 23 66 27 98 7 53
9 58 21 41 13 -18 14 -17 14 7 0 14 -7 42 -15 61 -21 50 -20 60 6 47 48 -26
28 6 -51 82 -107 102 -166 141 -259 173 -152 51 -312 54 -455 8 -37 -12 -54
-13 -72 -4 -34 15 -36 14 -29 -9 5 -16 2 -20 -15 -20 -12 0 -30 5 -42 11 -18
9 -19 8 -13 -10 5 -18 2 -21 -24 -21 -17 0 -31 5 -31 10 0 6 -10 10 -22 10
-21 -1 -21 -2 -5 -11 9 -5 17 -13 17 -18 0 -13 -108 -42 -134 -35 -37 9 -52
-5 -26 -23 13 -9 18 -19 12 -25 -9 -9 -92 39 -92 54 0 5 -4 7 -9 4 -12 -8 -34
21 -26 34 3 5 2 10 -3 10 -5 0 -10 26 -11 58 0 31 -4 143 -7 248 -7 195 -1
284 18 284 6 0 28 -18 50 -40 43 -46 47 -46 18 2 -40 69 -51 120 -55 261 -2
77 0 137 5 137 5 0 9 12 8 28 0 15 9 61 20 102 12 41 22 84 22 96 0 16 46 73
62 77 14 3 47 -28 53 -50 3 -15 13 -42 20 -60 13 -30 17 -33 35 -23 11 6 20
18 20 26 0 10 8 6 23 -12 22 -25 24 -25 40 -10 9 10 17 27 17 39 0 19 3 18 20
-10 22 -36 26 -38 64 -23 26 9 26 11 26 111 0 86 2 100 15 95 9 -3 15 0 15 10
0 8 5 12 10 9 6 -3 10 -1 10 4 0 6 6 11 13 11 18 0 79 55 70 63 -3 4 -1 7 5 7
7 0 25 14 42 31 16 18 30 28 30 24 0 -4 10 5 22 21 13 16 44 52 71 79 26 28
74 86 105 130 31 44 67 91 79 105 13 14 29 37 35 52 7 15 16 24 20 22 4 -3 8
0 8 5 0 6 18 28 39 49 22 20 57 62 77 92 21 30 46 63 56 74 10 11 18 22 18 26
0 3 9 6 20 7 11 1 20 0 20 -1z m3470 -106 c0 -5 -4 -10 -10 -10 -5 0 -10 5
-10 10 0 6 5 10 10 10 6 0 10 -4 10 -10z m23 -13 c3 -8 -1 -14 -8 -14 -7 0
-11 6 -8 14 3 7 6 13 8 13 2 0 5 -6 8 -13z m-43 -17 c8 -5 11 -13 6 -17 -5 -4
-11 -2 -13 5 -3 6 -9 10 -14 6 -5 -3 -9 0 -9 5 0 13 10 14 30 1z m-13 -52 c-3
-8 -6 -5 -6 6 -1 11 2 17 5 13 3 -3 4 -12 1 -19z m-5522 -60 c3 -33 2 -37 -5
-18 -9 29 -13 76 -4 68 3 -4 7 -26 9 -50z m5605 23 c0 -11 3 -28 6 -38 10 -27
-10 -3 -24 30 -10 22 -9 27 3 27 8 0 15 -9 15 -19z m-79 -18 c-8 -15 -10 -15
-11 -2 0 17 10 32 18 25 2 -3 -1 -13 -7 -23z m113 -55 c-6 -20 12 -25 19 -5 3
6 6 8 6 2 0 -5 -4 -17 -9 -25 -8 -13 -12 -13 -27 4 -12 12 -14 20 -7 23 7 2
10 14 7 26 -4 18 -3 19 6 7 6 -8 8 -23 5 -32z m-17 -66 c-28 -31 -21 -42 28
-42 40 0 45 3 46 23 1 17 3 15 10 -10 7 -23 5 -55 -5 -105 -11 -55 -14 -64
-15 -37 -1 23 -7 39 -16 43 -8 3 -15 1 -15 -5 0 -6 -7 -6 -20 1 -11 6 -24 8
-29 6 -25 -16 -29 95 -4 124 10 11 22 20 27 20 5 0 2 -8 -7 -18z m56 4 c4 -10
0 -12 -14 -9 -22 6 -26 23 -5 23 8 0 16 -6 19 -14z m59 -146 c2 -29 0 -39 -9
-36 -6 3 -14 0 -17 -7 -2 -7 -5 1 -5 16 -1 19 3 26 11 21 7 -4 8 -3 4 5 -7 11
-2 41 8 41 2 0 6 -18 8 -40z m-1192 -1590 c0 -5 -2 -10 -4 -10 -3 0 -8 5 -11
10 -3 6 -1 10 4 10 6 0 11 -4 11 -10z m69 -57 c2 -21 -66 -37 -100 -23 -16 7
-29 16 -29 20 0 12 47 33 59 26 6 -4 20 3 33 16 l22 22 7 -24 c4 -14 7 -30 8
-37z m6 -53 c-3 -5 -12 -10 -18 -10 -7 0 -6 4 3 10 19 12 23 12 15 0z m-3744
-148 c20 -47 25 -73 10 -56 -4 5 -25 41 -46 79 -37 68 -37 69 -10 45 15 -14
36 -44 46 -68z m913 46 c22 -31 20 -45 -9 -64 -49 -32 -101 19 -68 65 19 28
58 27 77 -1z m2142 -3 c15 -23 15 -27 0 -50 -31 -48 -105 -20 -91 34 12 48 64
57 91 16z m844 -4 c-4 -16 -13 -38 -20 -48 -9 -15 -10 -15 -4 7 10 39 23 70
28 70 3 0 1 -13 -4 -29z m-464 -43 c34 -32 34 -132 0 -203 -23 -49 -82 -122
-91 -113 -3 3 7 31 21 63 22 47 27 77 32 166 3 60 7 109 10 109 2 0 15 -10 28
-22z m-2900 -279 c10 -19 25 -42 33 -51 25 -31 -6 -20 -52 20 -51 43 -81 91
-71 115 3 9 1 17 -4 17 -11 0 -8 82 4 101 4 7 21 -29 39 -78 18 -50 41 -105
51 -124z m2627 61 c-9 -35 -59 -62 -127 -67 -55 -5 -65 -3 -90 19 l-28 24 65
-4 c65 -4 167 20 167 40 0 4 4 8 9 8 5 0 7 -9 4 -20z m-2158 -20 c-10 -16 -91
-50 -119 -50 -12 0 -31 7 -42 15 -18 14 -16 15 20 12 35 -4 114 18 132 36 11
10 17 0 9 -13z m-305 -183 c0 -5 -6 -4 -14 2 -7 6 -21 9 -30 5 -12 -5 -15 -2
-10 9 5 13 10 14 30 5 13 -6 24 -16 24 -21z m2806 -94 c-4 -4 -11 -1 -16 7
-16 25 -11 35 7 17 9 -9 13 -20 9 -24z m0 -58 c-7 -31 -13 -40 -19 -30 -6 12
16 75 26 75 2 0 -1 -20 -7 -45z m-3109 -192 c-3 -10 -5 -4 -5 12 0 17 2 24 5
18 2 -7 2 -21 0 -30z m3153 -220 c-38 -115 -152 -313 -181 -313 -5 0 8 26 29
58 22 31 65 112 97 180 57 120 79 150 55 75z m-156 -163 c-11 -10 -30 -21 -42
-25 -22 -6 -23 -5 -12 15 12 22 49 41 64 33 4 -3 0 -13 -10 -23z m-84 -214 c0
-2 -8 -10 -17 -17 -16 -13 -17 -12 -4 4 13 16 21 21 21 13z m1385 -36 c3 -5 1
-10 -4 -10 -6 0 -11 5 -11 10 0 6 2 10 4 10 3 0 8 -4 11 -10z m-40 -89 c3 -5
1 -12 -5 -16 -5 -3 -10 1 -10 9 0 18 6 21 15 7z m-162 -168 c-8 -55 -19 -60
-15 -8 2 25 8 45 12 45 5 0 6 -17 3 -37z m-29 -99 c-6 -25 -8 -26 -14 -9 -4
11 -2 25 4 31 15 17 18 11 10 -22z m-353 -247 c-5 -5 -17 -7 -26 -3 -15 5 -14
9 7 34 l23 29 3 -25 c2 -13 -1 -29 -7 -35z m-101 -87 c8 -5 11 -10 5 -10 -5 0
-17 5 -25 10 -8 5 -10 10 -5 10 6 0 17 -5 25 -10z m-166 -155 c-4 -8 -11 -15
-16 -15 -6 0 -5 6 2 15 7 8 14 15 16 15 2 0 1 -7 -2 -15z m-2671 -137 c35 -76
62 -167 53 -176 -3 -2 -10 6 -15 19 -5 13 -25 66 -45 118 -20 51 -36 97 -36
102 0 23 13 4 43 -63z m-173 -278 c0 -5 -5 -10 -11 -10 -5 0 -7 5 -4 10 3 6 8
10 11 10 2 0 4 -4 4 -10z m-30 -18 c0 -4 -5 -13 -12 -20 -9 -9 -7 -12 9 -12
12 0 28 -6 36 -14 10 -10 18 -11 25 -4 7 7 27 6 65 -2 52 -10 55 -13 65 -50
12 -47 2 -52 -73 -32 -27 7 -63 10 -80 7 -16 -4 -82 -10 -145 -14 -63 -5 -125
-12 -137 -16 -19 -6 -23 -4 -23 13 0 20 39 52 69 56 8 2 18 14 21 27 5 18 15
25 42 30 21 3 43 11 50 16 7 6 27 13 43 16 17 2 33 5 38 6 4 0 7 -3 7 -7z
m298 -107 l0 -40 -9 40 c-4 22 -8 51 -7 65 l0 25 8 -25 c4 -14 8 -43 8 -65z
m2887 75 c3 -5 1 -10 -4 -10 -6 0 -11 5 -11 10 0 6 2 10 4 10 3 0 8 -4 11 -10z
m-804 -36 c-5 -16 -10 -21 -10 -12 -1 18 10 51 15 45 2 -1 -1 -16 -5 -33z m29
-14 c0 -5 -4 -10 -10 -10 -5 0 -10 5 -10 10 0 6 5 10 10 10 6 0 10 -4 10 -10z
m-3211 -263 c1 -5 -6 -1 -15 7 -8 9 -12 21 -8 28 5 8 10 6 15 -8 4 -10 8 -23
8 -27z m38 -3 c-3 -3 -12 -4 -19 -1 -8 3 -5 6 6 6 11 1 17 -2 13 -5z m2454
-60 c41 -60 40 -119 -1 -162 -30 -31 -38 -52 -21 -52 4 0 11 -28 15 -62 3 -35
9 -75 12 -89 4 -17 0 -32 -11 -42 -23 -24 -28 -22 -50 25 -24 51 -26 130 -2
155 22 25 24 108 3 162 -16 44 -22 112 -9 124 9 10 30 -10 64 -59z m-2506 46
c3 -5 -1 -10 -9 -10 -9 0 -16 5 -16 10 0 6 4 10 9 10 6 0 13 -4 16 -10z m95
-5 c11 -13 10 -14 -4 -9 -9 3 -16 10 -16 15 0 13 6 11 20 -6z m60 1 c0 -2 -7
-7 -16 -10 -8 -3 -12 -2 -9 4 6 10 25 14 25 6z m834 -202 c9 -8 16 -19 16 -23
0 -17 -50 -53 -100 -72 -45 -17 -58 -18 -84 -8 -17 7 -33 14 -34 15 -2 1 6 16
18 32 16 21 39 35 79 47 31 9 61 18 66 20 19 6 24 5 39 -11z"/>
<path d="M1624 4715 c-4 -8 -18 -15 -34 -15 -16 0 -31 -6 -34 -12 -5 -10 -7
-10 -12 0 -8 18 -33 15 -92 -13 -29 -13 -56 -24 -60 -24 -20 3 -25 -2 -12 -12
12 -8 10 -9 -7 -4 -31 9 -163 -61 -163 -86 0 -17 19 -9 76 31 55 38 81 50 70
31 -4 -5 3 -7 14 -4 11 3 23 9 25 14 3 4 20 5 39 2 28 -4 34 -2 39 17 3 14 10
19 17 15 9 -6 9 -10 -1 -17 -10 -7 -8 -8 6 -3 11 4 26 7 33 6 29 -3 40 -2 92
4 30 3 67 11 83 17 46 18 187 -8 412 -75 55 -16 127 -37 160 -46 33 -10 86
-32 118 -49 42 -22 57 -27 57 -16 0 12 4 12 25 -2 23 -15 25 -15 19 0 -9 23 4
20 42 -9 33 -25 71 -34 59 -14 -4 6 -13 8 -20 5 -7 -2 -26 9 -41 25 -18 19
-36 28 -47 25 -13 -3 -17 0 -13 11 7 17 -30 52 -57 53 -10 0 -33 11 -52 25
-18 14 -37 25 -41 24 -10 -2 -22 2 -97 33 -67 27 -234 56 -337 59 -36 1 -78 6
-93 12 -23 8 -31 7 -38 -4 -6 -10 -9 -10 -9 -1 0 19 -119 17 -126 -3z"/>
<path d="M1111 4614 c0 -11 3 -14 6 -6 3 7 2 16 -1 19 -3 4 -6 -2 -5 -13z"/>
<path d="M1659 4026 c-37 -8 -91 -26 -121 -40 -30 -14 -60 -26 -66 -26 -7 0
-12 -4 -12 -9 0 -5 -11 -12 -25 -15 -24 -6 -69 -46 -60 -54 2 -2 19 6 37 19
18 13 37 25 43 26 5 1 60 20 121 42 123 44 244 66 307 56 138 -20 194 -41 390
-148 26 -14 47 -23 47 -20 0 21 -156 109 -263 149 -61 23 -91 27 -202 30 -85
2 -153 -1 -196 -10z"/>
<path d="M2470 2140 c14 -11 63 -31 110 -45 47 -14 132 -41 190 -60 164 -54
229 -68 285 -60 124 16 508 116 520 135 8 13 7 13 -46 -5 -24 -8 -113 -24
-198 -35 -85 -12 -170 -28 -189 -36 -40 -16 -122 -18 -172 -4 -31 9 -166 38
-393 85 -37 8 -77 21 -89 30 -32 22 -48 18 -18 -5z"/>
<path d="M3615 2150 c-3 -5 -1 -10 4 -10 6 0 11 5 11 10 0 6 -2 10 -4 10 -3 0
-8 -4 -11 -10z"/>
<path d="M5931 5594 c0 -11 3 -14 6 -6 3 7 2 16 -1 19 -3 4 -6 -2 -5 -13z"/>
<path d="M5545 1728 c-4 -26 -5 -53 -2 -60 2 -7 8 8 12 34 4 26 5 53 2 60 -2
7 -8 -8 -12 -34z"/>
<path d="M794 1563 c3 -6 2 -14 -4 -18 -14 -9 -12 -41 4 -57 8 -8 16 -23 20
-34 3 -10 3 8 0 41 -2 33 -10 64 -16 70 -8 7 -9 6 -4 -2z"/>
<path d="M5040 1460 c0 -5 6 -10 14 -10 8 0 18 5 21 10 3 6 -3 10 -14 10 -12
0 -21 -4 -21 -10z"/>
<path d="M5281 1194 c0 -11 3 -14 6 -6 3 7 2 16 -1 19 -3 4 -6 -2 -5 -13z"/>
<path d="M4495 811 c-6 -11 9 -23 19 -14 9 9 7 23 -3 23 -6 0 -12 -4 -16 -9z"/>
<path d="M5452 780 c2 -8 -5 -29 -18 -47 -12 -18 -25 -49 -29 -70 -9 -48 -40
-109 -78 -152 -26 -30 -28 -31 -22 -10 4 13 15 35 25 49 19 29 44 135 38 170
-2 18 -14 -2 -44 -75 -23 -55 -50 -127 -59 -160 -14 -48 -19 -56 -26 -40 -7
18 -8 18 -8 2 -1 -17 -8 -37 -42 -112 -9 -19 -44 -115 -76 -203 -8 -23 -19
-40 -23 -37 -4 3 -6 -5 -2 -17 4 -16 2 -19 -8 -13 -9 5 -11 4 -6 -4 4 -6 0
-18 -8 -27 -21 -20 -20 -36 0 -32 15 3 134 217 134 242 0 6 13 36 30 66 16 30
29 62 30 70 0 8 27 50 61 93 40 52 72 107 94 164 19 47 41 94 51 104 15 17 15
19 -1 36 -13 12 -17 13 -13 3z"/>
</g>
</svg>
